<svg viewBox="0 0 19 27" xmlns="http://www.w3.org/2000/svg" xmlns:xlink="http://www.w3.org/1999/xlink" width="19.000000" height="27.000000" fill="none" customFrame="#000000">
	<path id="Vector" d="M15.5455 3.375L13.8182 3.375L13.8182 1.6875C14.2951 1.6875 14.6818 1.30971 14.6818 0.84375C14.6818 0.377789 14.2951 0 13.8182 0L5.18182 0C4.70487 0 4.31818 0.377789 4.31818 0.84375C4.31818 1.30971 4.70487 1.6875 5.18182 1.6875L5.18182 3.375L3.45455 3.375C1.54969 3.375 0 4.889 0 6.75L0 21.9375C0 23.7985 1.54969 25.3125 3.45455 25.3125L3.88636 25.3125L3.88636 26.1562C3.88636 26.6222 4.27306 27 4.75 27C5.22694 27 5.61364 26.6222 5.61364 26.1562L5.61364 25.3125L13.3864 25.3125L13.3864 26.1562C13.3864 26.6222 13.7731 27 14.25 27C14.7269 27 15.1136 26.6222 15.1136 26.1562L15.1136 25.3125L15.5455 25.3125C17.4503 25.3125 19 23.7985 19 21.9375L19 6.75C19 4.889 17.4503 3.375 15.5455 3.375ZM6.90909 1.6875L12.0909 1.6875L12.0909 3.375L6.90909 3.375L6.90909 1.6875ZM6.04545 20.6719C6.04545 21.138 5.65898 21.5156 5.18182 21.5156C4.70466 21.5156 4.31818 21.138 4.31818 20.6719L4.31818 8.01562C4.31818 7.54945 4.70466 7.17188 5.18182 7.17188C5.65898 7.17188 6.04545 7.54945 6.04545 8.01562L6.04545 20.6719ZM10.3636 20.6719C10.3636 21.138 9.97716 21.5156 9.5 21.5156C9.02284 21.5156 8.63636 21.138 8.63636 20.6719L8.63636 8.01562C8.63636 7.54945 9.02284 7.17188 9.5 7.17188C9.97716 7.17188 10.3636 7.54945 10.3636 8.01562L10.3636 20.6719ZM12.9545 20.6719L12.9545 8.01562C12.9545 7.54945 13.341 7.17188 13.8182 7.17188C14.2953 7.17188 14.6818 7.54945 14.6818 8.01562L14.6818 20.6719C14.6818 21.138 14.2953 21.5156 13.8182 21.5156C13.341 21.5156 12.9545 21.138 12.9545 20.6719Z" fill="rgb(44,159,255)" fill-rule="nonzero" />
</svg>
