<svg width="24" height="17" viewBox="0 0 24 17" fill="none" xmlns="http://www.w3.org/2000/svg">
<path d="M21.8438 0H2.15625C0.967312 0 0 0.967312 0 2.15625V14.3438C0 15.5327 0.967312 16.5 2.15625 16.5H21.8438C23.0327 16.5 24 15.5327 24 14.3438V2.15625C24 0.967312 23.0327 0 21.8438 0ZM7.5 6.5625C7.5 7.49302 6.74302 8.25 5.8125 8.25H4.6875C3.75698 8.25 3 7.49302 3 6.5625V5.4375C3 4.50698 3.75698 3.75 4.6875 3.75H5.8125C6.74302 3.75 7.5 4.50698 7.5 5.4375V6.5625ZM17.1421 10.3927C16.9796 10.3927 16.8159 10.3401 16.6783 10.2316C16.353 9.97519 16.2972 9.50362 16.5536 9.17831C16.7639 8.91169 16.875 8.59064 16.875 8.25C16.875 7.90936 16.7639 7.58831 16.5537 7.32164C16.2972 6.99638 16.3531 6.52477 16.6784 6.26831C17.0036 6.01195 17.4752 6.06769 17.7317 6.393C18.1465 6.91931 18.375 7.5788 18.375 8.25C18.375 8.9212 18.1465 9.58069 17.7316 10.107C17.6615 10.1961 17.5719 10.2682 17.4698 10.3177C17.3677 10.3672 17.2556 10.3928 17.1421 10.3927ZM19.5627 12.0054C19.4924 12.0839 19.4064 12.1467 19.3101 12.1896C19.2139 12.2326 19.1097 12.2547 19.0043 12.2545C18.8258 12.2545 18.6468 12.1913 18.5036 12.0627C18.1953 11.7861 18.1696 11.3119 18.4463 11.0036C19.1258 10.2464 19.5 9.2685 19.5 8.25C19.5 7.2315 19.1258 6.25359 18.4463 5.49637C18.1696 5.18808 18.1953 4.71389 18.5036 4.43728C18.8118 4.16067 19.286 4.18627 19.5627 4.49456C20.4895 5.52741 21 6.86114 21 8.25C21 9.63886 20.4895 10.9726 19.5627 12.0054Z" fill="#2C9FFF"/>
</svg>
