<svg width="30" height="24" viewBox="0 0 30 24" fill="none" xmlns="http://www.w3.org/2000/svg">
<path fill-rule="evenodd" clip-rule="evenodd" d="M15.3862 0.00642768C12.9178 -0.0737032 10.4856 0.597065 8.432 1.92431C6.12272 3.41749 4.4316 5.65055 3.65605 8.23076C3.44595 8.20595 3.19437 8.21689 2.89563 8.29863C1.78029 8.60514 0.9418 9.48891 0.564612 10.2676C0.0750222 11.2824 -0.1313 12.6248 0.0863378 14.0099C0.302467 15.3911 0.90559 16.5295 1.65997 17.2363C2.41661 17.9435 3.27094 18.1734 4.11961 18.0008C5.38319 17.7399 6.0097 17.5447 5.8328 16.4062L4.97658 10.8854C5.06342 9.38275 5.51026 7.92025 6.28179 6.61342C7.05332 5.30658 8.12841 4.19121 9.42212 3.35542C11.1655 2.22722 13.2307 1.6562 15.3271 1.7227C17.4235 1.7892 19.4456 2.48988 21.1089 3.72615C22.2572 4.5779 23.2015 5.65986 23.877 6.8978C24.5524 8.13575 24.9431 9.5004 25.0222 10.8981L24.4233 14.7598C23.7734 16.4833 22.6317 17.9931 21.1307 19.1143C19.6297 20.2355 17.8309 20.9221 15.9429 21.0943H13.3909C13.2347 21.094 13.08 21.1235 12.9357 21.1811C12.7913 21.2388 12.6602 21.3234 12.5497 21.4302C12.4392 21.537 12.3517 21.6638 12.292 21.8034C12.2323 21.9431 12.2017 22.0927 12.202 22.2438V22.8502C12.2017 23.0013 12.2322 23.151 12.2919 23.2906C12.3515 23.4303 12.4391 23.5572 12.5496 23.664C12.66 23.7708 12.7912 23.8555 12.9356 23.9132C13.08 23.9708 13.2347 24.0003 13.3909 24H16.6087C16.7647 24.0002 16.9192 23.9707 17.0634 23.913C17.2075 23.8553 17.3385 23.7706 17.4487 23.6638C17.5589 23.557 17.6463 23.4301 17.7057 23.2906C17.7651 23.151 17.7954 23.0015 17.7949 22.8506V22.5331C20.6861 21.8486 23.2048 20.136 24.8499 17.7362L25.8807 18.0008C26.7196 18.2113 27.5841 17.9431 28.3404 17.2363C29.0947 16.5292 29.6975 15.3911 29.914 14.0099C30.1328 12.6244 29.92 11.2846 29.4365 10.2676C28.951 9.25064 28.228 8.60478 27.3932 8.37307C27.0436 8.27564 26.6641 8.23988 26.3386 8.23076C25.6379 5.89734 24.1857 3.84115 22.1933 2.36145C20.2347 0.907151 17.854 0.0835173 15.3862 0.00642768Z" fill="#2C9FFF"/>
<path fill-rule="evenodd" clip-rule="evenodd" d="M19.0685 10.2494C19.469 10.2497 19.853 10.403 20.1362 10.6758C20.4193 10.9485 20.5785 11.3183 20.5787 11.704C20.578 12.0895 20.4186 12.4591 20.1355 12.7317C19.8524 13.0044 19.4686 13.1578 19.0682 13.1585C18.6673 13.1586 18.2828 13.0054 17.9992 12.7327C17.7155 12.46 17.5559 12.09 17.5554 11.704C17.5555 11.5128 17.5947 11.3234 17.6707 11.1468C17.7468 10.9702 17.8583 10.8098 17.9987 10.6747C18.1392 10.5395 18.306 10.4324 18.4895 10.3594C18.673 10.2864 18.8696 10.2489 19.0682 10.2491L19.0685 10.2494ZM15.0004 10.2494C15.2991 10.2496 15.591 10.335 15.8393 10.4949C16.0876 10.6548 16.2811 10.882 16.3953 11.1477C16.5096 11.4135 16.5394 11.7059 16.4811 11.988C16.4227 12.2701 16.2788 12.5292 16.0676 12.7326C15.8563 12.936 15.5872 13.0745 15.2943 13.1306C15.0013 13.1867 14.6976 13.1579 14.4217 13.0478C14.1457 12.9378 13.9098 12.7514 13.7438 12.5122C13.5778 12.2731 13.4892 11.9919 13.4891 11.7043C13.4889 11.5132 13.5279 11.3238 13.6038 11.1472C13.6796 10.9705 13.791 10.81 13.9313 10.6749C14.0717 10.5397 14.2384 10.4325 14.4218 10.3594C14.6053 10.2864 14.8019 10.2492 15.0004 10.2494ZM10.9333 10.2494C11.1345 10.2451 11.3345 10.2796 11.5217 10.3508C11.7088 10.4219 11.8793 10.5284 12.0232 10.6639C12.167 10.7994 12.2813 10.9612 12.3594 11.1398C12.4374 11.3184 12.4776 11.5102 12.4776 11.704C12.4776 11.8977 12.4374 12.0895 12.3594 12.2681C12.2813 12.4468 12.167 12.6085 12.0232 12.744C11.8793 12.8795 11.7088 12.986 11.5217 13.0572C11.3345 13.1283 11.1345 13.1628 10.9333 13.1585C10.5367 13.1525 10.1585 12.9966 9.88026 12.7245C9.60201 12.4523 9.44606 12.0857 9.44606 11.7038C9.44606 11.3219 9.60201 10.9552 9.88026 10.6831C10.1585 10.4109 10.5367 10.2554 10.9333 10.2494ZM15.0004 4C10.5701 4 7 7.32467 7 11.7036C7 13.8068 7.82583 15.6655 9.17117 17.0293L8.69378 19.0902C8.53637 19.7683 9.02485 20.2245 9.65817 19.8851L11.7477 18.7625C12.7742 19.1909 13.8816 19.4106 15.0004 19.4079C19.4321 19.4079 23 16.0854 23 11.7047C23 7.32538 19.4321 4.00071 15.0004 4.00071V4Z" fill="#2C9FFF"/>
</svg>
