<svg viewBox="0 0 24 20" xmlns="http://www.w3.org/2000/svg" xmlns:xlink="http://www.w3.org/1999/xlink" width="24.000000" height="20.000000" fill="none" customFrame="#000000">
	<path id="Vector" d="M7.12266 11.4123C7.4556 11.0357 7.18439 10.4476 6.67769 10.4476L5.16065 10.4476C5.15056 10.2986 5.14542 10.1493 5.14524 10C5.14524 6.27284 8.22026 3.24061 12 3.24061C13.8164 3.24061 15.4698 3.9411 16.6976 5.08222L18.8368 2.61447C16.9642 0.925261 14.5543 0 12 0C9.29121 0 6.74457 1.04021 4.82916 2.92892C2.91379 4.81768 1.85891 7.32889 1.85891 9.99998C1.85891 10.1497 1.8627 10.2989 1.8693 10.4476L0.591489 10.4476C0.0847933 10.4476 -0.186468 11.0356 0.14652 11.4122L3.0291 14.6727L3.63457 15.3575L5.80841 12.8987L7.12266 11.4123ZM23.8535 9.50998L21.7035 7.07812L20.3655 5.56468L18.4551 7.7255L16.8774 9.50998C16.5445 9.8866 16.8157 10.4746 17.3224 10.4746L18.8376 10.4746C18.5897 13.9812 15.6179 16.7594 12 16.7594C10.4207 16.7594 8.96468 16.2297 7.80437 15.3415L5.66505 17.8094C7.45724 19.2286 9.66836 20 12.0001 20C14.7089 20 17.2555 18.9598 19.1709 17.0711C20.9724 15.2946 22.0124 12.9675 22.1297 10.4747L23.4086 10.4747C23.9152 10.4746 24.1864 9.8866 23.8535 9.50998Z" fill="rgb(44,159,255)" fill-rule="nonzero" />
</svg>
