<svg viewBox="0 0 17 24" xmlns="http://www.w3.org/2000/svg" xmlns:xlink="http://www.w3.org/1999/xlink" width="17.000000" height="24.000000" fill="none" customFrame="#000000">
	<path id="Layer 2" d="M15.5588 10.2365L11.2 10.2365L14.9129 1.99953C15.0105 1.78298 15.0518 1.5458 15.0328 1.30954C15.0138 1.07329 14.9353 0.845454 14.8043 0.646762C14.6733 0.44807 14.494 0.284824 14.2827 0.171869C14.0714 0.0589137 13.8349 -0.000166692 13.5945 3.53245e-07L5.6706 3.53245e-07C5.36827 0.000147154 5.07364 0.0940106 4.82837 0.268317C4.58309 0.442624 4.39959 0.688554 4.30381 0.971329L0.0742619 13.4826C0.00185383 13.6964 -0.017976 13.9241 0.0164081 14.1469C0.0507922 14.3697 0.138405 14.5813 0.27202 14.7641C0.405634 14.947 0.581421 15.0959 0.784881 15.1986C0.988342 15.3013 1.21364 15.3548 1.4422 15.3547L6.4826 15.3547L4.92665 22.2643C4.85187 22.5757 4.88756 22.9029 5.02776 23.1914C5.16796 23.4799 5.40422 23.7123 5.69713 23.8499C5.89836 23.9469 6.11907 23.9982 6.34304 24C6.5535 23.999 6.76114 23.9522 6.95115 23.8629C7.14115 23.7737 7.30884 23.6441 7.44224 23.4836L16.6661 12.5681C16.8414 12.3605 16.9531 12.108 16.9882 11.8401C17.0232 11.5721 16.9801 11.2999 16.8639 11.0553C16.7477 10.8106 16.5633 10.6037 16.3321 10.4587C16.101 10.3137 15.8327 10.2366 15.5588 10.2365Z" fill="rgb(44,159,255)" fill-rule="nonzero" />
</svg>
