<svg width="24" height="24" viewBox="0 0 24 24" fill="none" xmlns="http://www.w3.org/2000/svg">
<path d="M4.95 14.43C4.455 15.675 3.675 16.905 2.6325 18.09C2.3025 18.465 2.2575 19.005 2.5275 19.425C2.7375 19.755 3.0825 19.935 3.4575 19.935C3.5625 19.935 3.6675 19.9275 3.7725 19.89C5.9775 19.245 11.13 16.9575 11.2725 9.62249C11.325 6.79499 9.255 4.36499 6.5625 4.08749C5.07 3.93749 3.585 4.42499 2.4825 5.41499C1.93729 5.90955 1.50153 6.51266 1.20317 7.18558C0.904806 7.85851 0.750447 8.58638 0.75 9.32249C0.75 11.7975 2.505 13.965 4.95 14.43ZM18.5325 4.08749C17.0475 3.93749 15.5625 4.42499 14.46 5.41499C13.9148 5.90955 13.479 6.51266 13.1807 7.18558C12.8823 7.85851 12.7279 8.58638 12.7275 9.32249C12.7275 11.7975 14.4825 13.965 16.9275 14.43C16.4325 15.675 15.6525 16.905 14.61 18.09C14.28 18.465 14.235 19.005 14.505 19.425C14.715 19.755 15.06 19.935 15.435 19.935C15.54 19.935 15.645 19.9275 15.75 19.89C17.955 19.245 23.1075 16.9575 23.25 9.62249V9.51749C23.25 6.73499 21.2025 4.36499 18.5325 4.08749Z" fill="#2C9FFF"/>
</svg>
