<svg width="24" height="24" viewBox="0 0 24 24" fill="none" xmlns="http://www.w3.org/2000/svg">
<path d="M23.8737 0.327547C23.8522 0.231027 23.7772 0.155955 23.6862 0.129144C20.5469 -0.637656 13.2986 2.09709 9.37185 6.02761C8.67007 6.7247 8.03257 7.48078 7.46471 8.28511C6.25399 8.17787 5.04328 8.26903 4.00935 8.71945C1.09505 10.001 0.248625 13.3524 0.00755271 14.7895C-0.0406617 15.0683 0.146839 15.3365 0.430768 15.3847C0.478982 15.3901 0.527197 15.3954 0.575411 15.3901L5.2522 14.8753C5.25756 15.2292 5.27899 15.5831 5.31649 15.9317C5.33792 16.173 5.45042 16.4035 5.62185 16.5751L7.43257 18.3822C7.60399 18.5538 7.83435 18.6664 8.07542 18.6879C8.42364 18.7254 8.77185 18.7468 9.12543 18.7522L8.61114 23.4281C8.579 23.7123 8.78793 23.9697 9.07185 23.9965C9.12007 24.0018 9.16828 24.0018 9.21114 23.9911C10.6469 23.7605 14.0004 22.9133 15.2754 19.9962C15.7254 18.9613 15.8165 17.7548 15.7147 16.5483C16.5237 15.9799 17.279 15.3365 17.9754 14.6394C21.9129 10.7196 24.629 3.62533 23.8737 0.327547ZM17.6754 9.95813C16.6737 10.9609 15.0451 10.9662 14.0433 9.95813C13.0361 8.95539 13.0361 7.32527 14.0433 6.31717C15.0451 5.30907 16.6737 5.30907 17.6808 6.31717C18.6826 7.32527 18.6826 8.95539 17.6754 9.95813Z" fill="#2C9FFF"/>
<path d="M7.58323 19.4684C7.2825 19.7691 6.80134 19.8839 6.22175 19.9877C4.92041 20.2064 3.77218 19.0857 4.00729 17.7736C4.09478 17.2762 4.3627 16.5764 4.52673 16.4124C4.61968 16.3195 4.62515 16.1664 4.5322 16.0734C4.47752 16.0188 4.40644 15.9914 4.32989 16.0024C3.60267 16.0898 2.92467 16.4233 2.41069 16.9372C1.12029 18.2274 1 23 1 23C1 23 5.77886 22.8797 7.06379 21.5895C7.58323 21.0702 7.9113 20.3978 7.99879 19.6652C8.02066 19.4411 7.7418 19.3044 7.58323 19.4684Z" fill="#2C9FFF"/>
</svg>
