<svg width="24" height="24" viewBox="0 0 24 24" fill="none" xmlns="http://www.w3.org/2000/svg">
<path d="M17.9807 16.0603C18.1699 14.7152 18.2639 13.3584 18.2619 12C18.2639 10.6416 18.1699 9.28481 17.9807 7.93969H23.2986C24.2384 10.565 24.2384 13.435 23.2986 16.0603H17.9807ZM12.0017 24C10.8299 24 9.63362 22.7972 8.71628 20.7005C8.29721 19.7428 7.95596 18.6511 7.7005 17.4661H16.303C16.0475 18.6506 15.7063 19.7423 15.2872 20.7005C14.3699 22.7972 13.1736 24 12.0017 24ZM7.44362 16.0603C7.04865 13.3678 7.04865 10.6322 7.44362 7.93969H16.5599C16.7596 9.28386 16.8586 10.6411 16.8561 12C16.8586 13.3589 16.7596 14.7161 16.5599 16.0603H7.44362ZM0.704871 16.0603C-0.234957 13.435 -0.234957 10.565 0.704871 7.93969H6.02284C5.6472 10.6335 5.6472 13.3665 6.02284 16.0603H0.704871ZM12.0017 0C13.1736 0 14.3699 1.20234 15.2872 3.29953C15.7063 4.25719 16.0475 5.34891 16.303 6.53391H7.7005C7.95596 5.34937 8.29721 4.25766 8.71628 3.29953C9.63362 1.20234 10.8299 0 12.0017 0ZM22.6892 6.53344H17.7383C17.4571 5.14125 17.0661 3.85641 16.5758 2.73656C16.1788 1.82813 15.7288 1.05891 15.2361 0.439219C16.8336 0.881612 18.3214 1.652 19.6046 2.70126C20.8878 3.75053 21.9384 5.05565 22.6892 6.53344ZM8.76737 0.43875C8.27612 1.05891 7.82659 1.82766 7.42909 2.73563C6.93878 3.85641 6.54831 5.14125 6.26659 6.5325H1.31425C2.06528 5.05489 3.11588 3.74992 4.39909 2.70075C5.6823 1.65159 7.17 0.881222 8.76737 0.43875ZM1.31425 17.4666H6.26518C6.54643 18.8587 6.93737 20.1436 7.42768 21.2634C7.82518 22.1714 8.27471 22.9402 8.76596 23.5603C7.16879 23.1178 5.68131 22.3474 4.39833 21.2982C3.11535 20.2491 2.06501 18.9441 1.31425 17.4666ZM15.2361 23.5603C15.7274 22.9402 16.1774 22.1714 16.5744 21.2634C17.0647 20.1427 17.4552 18.8578 17.7369 17.4666H22.6892C21.9384 18.9444 20.8879 20.2496 19.6046 21.2989C18.3214 22.3483 16.8336 23.1188 15.2361 23.5613V23.5603Z" fill="#2C9FFF"/>
</svg>
