<svg viewBox="0 0 137 29" xmlns="http://www.w3.org/2000/svg" xmlns:xlink="http://www.w3.org/1999/xlink" width="137.000000" height="29.000000" fill="none" customFrame="#000000">
	<rect id="eSIM Travel" width="137.000000" height="29.000000" x="0.000000" y="0.000000" fill="rgb(255,255,255)" fill-opacity="0" />
	<path id="eSIM Travel" d="M7.2 23.908C6.048 23.908 4.984 23.676 4.008 23.212C3.048 22.732 2.28 22.012 1.704 21.052C1.128 20.076 0.84 18.852 0.84 17.38L0.84 16.9C0.84 15.492 1.112 14.324 1.656 13.396C2.216 12.468 2.96 11.772 3.888 11.308C4.816 10.844 5.84 10.612 6.96 10.612C8.96 10.612 10.48 11.14 11.52 12.196C12.56 13.252 13.08 14.78 13.08 16.78L13.08 18.124L4.08 18.124C4.112 18.876 4.272 19.492 4.56 19.972C4.864 20.436 5.248 20.78 5.712 21.004C6.176 21.212 6.672 21.316 7.2 21.316C8.016 21.316 8.632 21.196 9.048 20.956C9.464 20.716 9.76 20.364 9.936 19.9L12.84 19.9C12.584 21.228 11.952 22.228 10.944 22.9C9.936 23.572 8.688 23.908 7.2 23.908ZM7.08 13.204C6.584 13.204 6.104 13.284 5.64 13.444C5.176 13.604 4.808 13.892 4.536 14.308C4.264 14.708 4.112 15.244 4.08 15.916L10.008 15.916C9.992 15.196 9.848 14.644 9.576 14.26C9.32 13.86 8.976 13.588 8.544 13.444C8.112 13.284 7.624 13.204 7.08 13.204ZM21.8419 23.908C20.3539 23.908 19.1139 23.7 18.1219 23.284C17.1299 22.868 16.3699 22.292 15.8419 21.556C15.3299 20.804 15.0499 19.932 15.0019 18.94L18.6019 18.94C18.7299 19.564 19.0179 20.044 19.4659 20.38C19.9299 20.716 20.7219 20.884 21.8419 20.884C22.9939 20.884 23.8179 20.732 24.3139 20.428C24.8259 20.108 25.0819 19.66 25.0819 19.084C25.0819 18.604 24.9299 18.212 24.6259 17.908C24.3379 17.604 23.8899 17.348 23.2819 17.14C22.6739 16.916 21.8819 16.708 20.9059 16.516C19.7699 16.292 18.7939 15.98 17.9779 15.58C17.1619 15.18 16.5379 14.636 16.1059 13.948C15.6899 13.26 15.4819 12.388 15.4819 11.332C15.4819 10.356 15.7379 9.516 16.2499 8.812C16.7619 8.092 17.4979 7.532 18.4579 7.132C19.4179 6.732 20.5459 6.532 21.8419 6.532C23.2499 6.532 24.4019 6.732 25.2979 7.132C26.2099 7.516 26.8979 8.06 27.3619 8.764C27.8419 9.468 28.1219 10.3 28.2019 11.26L24.6259 11.26C24.4979 10.684 24.2339 10.26 23.8339 9.988C23.4339 9.7 22.7699 9.556 21.8419 9.556C20.8979 9.556 20.2019 9.708 19.7539 10.012C19.3059 10.316 19.0819 10.724 19.0819 11.236C19.0819 11.86 19.3859 12.348 19.9939 12.7C20.6179 13.052 21.5939 13.356 22.9219 13.612C23.8339 13.788 24.6419 14.004 25.3459 14.26C26.0659 14.516 26.6739 14.852 27.1699 15.268C27.6659 15.668 28.0419 16.156 28.2979 16.732C28.5539 17.308 28.6819 18.004 28.6819 18.82C28.6819 19.844 28.4099 20.74 27.8659 21.508C27.3379 22.276 26.5619 22.868 25.5379 23.284C24.5299 23.7 23.2979 23.908 21.8419 23.908ZM31.9262 23.62L31.9262 6.82L35.5022 6.82L35.5022 23.62L31.9262 23.62ZM39.6081 23.62L39.6081 6.82L43.1841 6.82L48.2961 16.276L53.3841 6.82L56.8641 6.82L56.8641 23.62L53.2641 23.62L53.2641 12.94L49.2801 20.26L47.1441 20.26L43.1841 12.94L43.1841 23.62L39.6081 23.62Z" fill="rgb(44,159,255)" fill-rule="nonzero" />
	<path id="eSIM Travel" d="M70.6378 23.62L70.6378 9.796L65.2378 9.796L65.2378 6.82L79.6138 6.82L79.6138 9.796L74.2138 9.796L74.2138 23.62L70.6378 23.62ZM79.6281 23.62L79.6281 10.9L82.5081 10.9L82.5081 12.796C82.6841 12.428 82.9241 12.084 83.2281 11.764C83.5321 11.444 83.9081 11.172 84.3561 10.948C84.8041 10.724 85.3001 10.612 85.8441 10.612C86.1481 10.612 86.4041 10.628 86.6121 10.66C86.8361 10.692 86.9801 10.724 87.0441 10.756L87.0441 13.564C86.8841 13.5 86.6761 13.444 86.4201 13.396C86.1801 13.332 85.8521 13.3 85.4361 13.3C84.7961 13.3 84.2761 13.436 83.8761 13.708C83.4921 13.98 83.2121 14.34 83.0361 14.788C82.8601 15.22 82.7721 15.692 82.7721 16.204L82.7721 23.62L79.6281 23.62ZM92.3966 23.908C91.4846 23.908 90.7086 23.74 90.0686 23.404C89.4286 23.052 88.9406 22.572 88.6046 21.964C88.2686 21.356 88.1006 20.668 88.1006 19.9C88.1006 18.62 88.4766 17.66 89.2286 17.02C89.9966 16.38 91.1406 16.06 92.6606 16.06L96.4526 16.06L96.4526 15.46C96.4526 14.628 96.2606 14.044 95.8766 13.708C95.5086 13.372 94.9166 13.204 94.1006 13.204C93.3806 13.204 92.8606 13.332 92.5406 13.588C92.2206 13.828 92.0366 14.132 91.9886 14.5L88.8206 14.5C88.8686 13.764 89.1006 13.108 89.5166 12.532C89.9486 11.94 90.5566 11.476 91.3406 11.14C92.1406 10.788 93.1006 10.612 94.2206 10.612C95.3086 10.612 96.2526 10.772 97.0526 11.092C97.8686 11.412 98.5006 11.932 98.9486 12.652C99.3966 13.356 99.6206 14.308 99.6206 15.508L99.6206 20.38C99.6206 21.052 99.6286 21.644 99.6446 22.156C99.6766 22.652 99.7246 23.14 99.7886 23.62L96.8366 23.62C96.7726 23.268 96.7326 23.004 96.7166 22.828C96.7166 22.636 96.7166 22.356 96.7166 21.988C96.3806 22.5 95.8526 22.948 95.1326 23.332C94.4126 23.716 93.5006 23.908 92.3966 23.908ZM93.3806 21.46C93.8926 21.46 94.3806 21.372 94.8446 21.196C95.3246 21.004 95.7086 20.716 95.9966 20.332C96.3006 19.932 96.4526 19.428 96.4526 18.82L96.4526 18.22L93.2606 18.22C92.6526 18.22 92.1726 18.364 91.8206 18.652C91.4846 18.924 91.3166 19.3 91.3166 19.78C91.3166 20.292 91.4926 20.7 91.8446 21.004C92.1966 21.308 92.7086 21.46 93.3806 21.46ZM106.327 23.62L100.951 10.9L104.503 10.9L107.959 19.684L111.127 10.9L114.391 10.9L109.495 23.62L106.327 23.62ZM121.364 23.908C120.212 23.908 119.148 23.676 118.172 23.212C117.212 22.732 116.444 22.012 115.868 21.052C115.292 20.076 115.004 18.852 115.004 17.38L115.004 16.9C115.004 15.492 115.276 14.324 115.82 13.396C116.38 12.468 117.124 11.772 118.052 11.308C118.98 10.844 120.004 10.612 121.124 10.612C123.124 10.612 124.644 11.14 125.684 12.196C126.724 13.252 127.244 14.78 127.244 16.78L127.244 18.124L118.244 18.124C118.276 18.876 118.436 19.492 118.724 19.972C119.028 20.436 119.412 20.78 119.876 21.004C120.34 21.212 120.836 21.316 121.364 21.316C122.18 21.316 122.796 21.196 123.212 20.956C123.628 20.716 123.924 20.364 124.1 19.9L127.004 19.9C126.748 21.228 126.116 22.228 125.108 22.9C124.1 23.572 122.852 23.908 121.364 23.908ZM121.244 13.204C120.748 13.204 120.268 13.284 119.804 13.444C119.34 13.604 118.972 13.892 118.7 14.308C118.428 14.708 118.276 15.244 118.244 15.916L124.172 15.916C124.156 15.196 124.012 14.644 123.74 14.26C123.484 13.86 123.14 13.588 122.708 13.444C122.276 13.284 121.788 13.204 121.244 13.204ZM133.846 23.764C132.87 23.764 132.07 23.636 131.446 23.38C130.838 23.108 130.39 22.66 130.102 22.036C129.814 21.396 129.67 20.508 129.67 19.372L129.67 6.82L132.814 6.82L132.814 18.988C132.814 19.804 132.926 20.356 133.15 20.644C133.39 20.932 133.854 21.076 134.542 21.076C134.718 21.076 134.87 21.076 134.998 21.076C135.126 21.06 135.254 21.044 135.382 21.028L135.382 23.668C135.302 23.7 135.166 23.724 134.974 23.74C134.782 23.756 134.582 23.764 134.374 23.764C134.166 23.764 133.99 23.764 133.846 23.764Z" fill="rgb(44,159,255)" fill-rule="nonzero" />
	<path id="eSIM Travel" d="M70.6378 23.62L70.6378 9.796L65.2378 9.796L65.2378 6.82L79.6138 6.82L79.6138 9.796L74.2138 9.796L74.2138 23.62L70.6378 23.62ZM79.6281 23.62L79.6281 10.9L82.5081 10.9L82.5081 12.796C82.6841 12.428 82.9241 12.084 83.2281 11.764C83.5321 11.444 83.9081 11.172 84.3561 10.948C84.8041 10.724 85.3001 10.612 85.8441 10.612C86.1481 10.612 86.4041 10.628 86.6121 10.66C86.8361 10.692 86.9801 10.724 87.0441 10.756L87.0441 13.564C86.8841 13.5 86.6761 13.444 86.4201 13.396C86.1801 13.332 85.8521 13.3 85.4361 13.3C84.7961 13.3 84.2761 13.436 83.8761 13.708C83.4921 13.98 83.2121 14.34 83.0361 14.788C82.8601 15.22 82.7721 15.692 82.7721 16.204L82.7721 23.62L79.6281 23.62ZM92.3966 23.908C91.4846 23.908 90.7086 23.74 90.0686 23.404C89.4286 23.052 88.9406 22.572 88.6046 21.964C88.2686 21.356 88.1006 20.668 88.1006 19.9C88.1006 18.62 88.4766 17.66 89.2286 17.02C89.9966 16.38 91.1406 16.06 92.6606 16.06L96.4526 16.06L96.4526 15.46C96.4526 14.628 96.2606 14.044 95.8766 13.708C95.5086 13.372 94.9166 13.204 94.1006 13.204C93.3806 13.204 92.8606 13.332 92.5406 13.588C92.2206 13.828 92.0366 14.132 91.9886 14.5L88.8206 14.5C88.8686 13.764 89.1006 13.108 89.5166 12.532C89.9486 11.94 90.5566 11.476 91.3406 11.14C92.1406 10.788 93.1006 10.612 94.2206 10.612C95.3086 10.612 96.2526 10.772 97.0526 11.092C97.8686 11.412 98.5006 11.932 98.9486 12.652C99.3966 13.356 99.6206 14.308 99.6206 15.508L99.6206 20.38C99.6206 21.052 99.6286 21.644 99.6446 22.156C99.6766 22.652 99.7246 23.14 99.7886 23.62L96.8366 23.62C96.7726 23.268 96.7326 23.004 96.7166 22.828C96.7166 22.636 96.7166 22.356 96.7166 21.988C96.3806 22.5 95.8526 22.948 95.1326 23.332C94.4126 23.716 93.5006 23.908 92.3966 23.908ZM93.3806 21.46C93.8926 21.46 94.3806 21.372 94.8446 21.196C95.3246 21.004 95.7086 20.716 95.9966 20.332C96.3006 19.932 96.4526 19.428 96.4526 18.82L96.4526 18.22L93.2606 18.22C92.6526 18.22 92.1726 18.364 91.8206 18.652C91.4846 18.924 91.3166 19.3 91.3166 19.78C91.3166 20.292 91.4926 20.7 91.8446 21.004C92.1966 21.308 92.7086 21.46 93.3806 21.46ZM106.327 23.62L100.951 10.9L104.503 10.9L107.959 19.684L111.127 10.9L114.391 10.9L109.495 23.62L106.327 23.62ZM121.364 23.908C120.212 23.908 119.148 23.676 118.172 23.212C117.212 22.732 116.444 22.012 115.868 21.052C115.292 20.076 115.004 18.852 115.004 17.38L115.004 16.9C115.004 15.492 115.276 14.324 115.82 13.396C116.38 12.468 117.124 11.772 118.052 11.308C118.98 10.844 120.004 10.612 121.124 10.612C123.124 10.612 124.644 11.14 125.684 12.196C126.724 13.252 127.244 14.78 127.244 16.78L127.244 18.124L118.244 18.124C118.276 18.876 118.436 19.492 118.724 19.972C119.028 20.436 119.412 20.78 119.876 21.004C120.34 21.212 120.836 21.316 121.364 21.316C122.18 21.316 122.796 21.196 123.212 20.956C123.628 20.716 123.924 20.364 124.1 19.9L127.004 19.9C126.748 21.228 126.116 22.228 125.108 22.9C124.1 23.572 122.852 23.908 121.364 23.908ZM121.244 13.204C120.748 13.204 120.268 13.284 119.804 13.444C119.34 13.604 118.972 13.892 118.7 14.308C118.428 14.708 118.276 15.244 118.244 15.916L124.172 15.916C124.156 15.196 124.012 14.644 123.74 14.26C123.484 13.86 123.14 13.588 122.708 13.444C122.276 13.284 121.788 13.204 121.244 13.204ZM133.846 23.764C132.87 23.764 132.07 23.636 131.446 23.38C130.838 23.108 130.39 22.66 130.102 22.036C129.814 21.396 129.67 20.508 129.67 19.372L129.67 6.82L132.814 6.82L132.814 18.988C132.814 19.804 132.926 20.356 133.15 20.644C133.39 20.932 133.854 21.076 134.542 21.076C134.718 21.076 134.87 21.076 134.998 21.076C135.126 21.06 135.254 21.044 135.382 21.028L135.382 23.668C135.302 23.7 135.166 23.724 134.974 23.74C134.782 23.756 134.582 23.764 134.374 23.764C134.166 23.764 133.99 23.764 133.846 23.764Z" fill="rgb(37,32,31)" fill-rule="nonzero" />
</svg>
